<?xml version="1.0" encoding="UTF-8" standalone="no"?>
<!DOCTYPE svg PUBLIC "-//W3C//DTD SVG 1.1//EN" "http://www.w3.org/Graphics/SVG/1.1/DTD/svg11.dtd">
<svg width="100%" height="100%" viewBox="0 0 128 128" version="1.1" xmlns="http://www.w3.org/2000/svg" xmlns:xlink="http://www.w3.org/1999/xlink" xml:space="preserve" xmlns:serif="http://www.serif.com/" style="fill-rule:evenodd;clip-rule:evenodd;stroke-linejoin:round;stroke-miterlimit:1.41421;">
    <g transform="matrix(1,0,0,1,0,-327)">
        <g id="End" transform="matrix(1,0,0,1,0,327)">
            <rect x="0" y="0" width="128" height="128" style="fill:none;"/>
            <g transform="matrix(0.684932,0,0,0.940594,22.3767,-240.792)">
                <path d="M98,256L98,320.5C98,340.645 81.645,357 61.5,357C41.355,357 25,340.645 25,320.5L25,256L98,256Z" style="fill:rgb(0,178,65);"/>
            </g>
            <g transform="matrix(1.09091,0,0,1.09091,-0.409091,-8.63636)">
                <circle cx="59.5" cy="67.5" r="27.5" style="fill:white;"/>
            </g>
            <g transform="matrix(0.909091,0,0,0.909091,10.4091,3.63636)">
                <circle cx="59.5" cy="67.5" r="27.5" style="fill:rgb(0,178,65);"/>
            </g>
        </g>
    </g>
</svg>
