<?xml version="1.0" encoding="UTF-8" standalone="no"?>
<!DOCTYPE svg PUBLIC "-//W3C//DTD SVG 1.1//EN" "http://www.w3.org/Graphics/SVG/1.1/DTD/svg11.dtd">
<svg width="100%" height="100%" viewBox="0 0 500 200" version="1.1" xmlns="http://www.w3.org/2000/svg" xmlns:xlink="http://www.w3.org/1999/xlink" xml:space="preserve" xmlns:serif="http://www.serif.com/" style="fill-rule:evenodd;clip-rule:evenodd;stroke-linejoin:round;stroke-miterlimit:1.41421;">
    <g transform="matrix(1,0,0,1,-1674,0)">
        <g id="Logo" transform="matrix(1.17925,0,0,1.02041,-320.104,0)">
            <rect x="1691" y="0" width="424" height="196" style="fill:none;"/>
            <clipPath id="_clip1">
                <rect x="1691" y="0" width="424" height="196"/>
            </clipPath>
            <g clip-path="url(#_clip1)">
                <g transform="matrix(0.937721,0,0,1.08369,95.6164,37.2788)">
                    <clipPath id="_clip2">
                        <path d="M1757.24,4L1778.17,4L1778.36,12.448C1786.94,5.792 1796.22,2.464 1806.2,2.464C1816.82,2.464 1825.11,6.112 1831.06,13.408C1837.02,20.704 1839.99,30.56 1839.99,42.976C1839.99,54.624 1838.04,64.896 1834.14,73.792C1830.23,82.688 1824.66,89.6 1817.43,94.528C1810.2,99.456 1801.72,101.92 1791.99,101.92C1785.85,101.92 1780.6,100.768 1776.25,98.464C1771.9,96.16 1768.44,93.088 1765.88,89.248L1755.9,146.464L1732.09,146.464L1757.24,4ZM1790.07,82.336C1797.62,82.336 1803.74,78.88 1808.41,71.968C1813.08,65.056 1815.42,56.16 1815.42,45.28C1815.42,38.112 1814.04,32.448 1811.29,28.288C1808.54,24.128 1804.34,22.048 1798.71,22.048C1790.14,22.048 1783.26,25.76 1778.07,33.184C1772.89,40.608 1770.3,49.824 1770.3,60.832C1770.3,75.168 1776.89,82.336 1790.07,82.336ZM1871.1,101.92C1860.22,101.92 1851.58,98.208 1845.18,90.784C1838.78,83.36 1835.58,73.76 1835.58,61.984C1835.58,51.872 1837.78,42.24 1842.2,33.088C1846.62,23.936 1852.92,16.544 1861.11,10.912C1869.3,5.28 1878.78,2.464 1889.53,2.464C1894.39,2.464 1898.58,3.168 1902.1,4.576C1905.62,5.984 1908.86,8.032 1911.8,10.72L1914.49,4L1935.22,4L1924.09,69.664C1923.58,72.608 1923.32,75.04 1923.32,76.96C1923.32,79.52 1923.9,81.056 1925.05,81.568C1926.2,82.08 1928.76,82.336 1932.73,82.336L1927.35,101.92C1920.7,101.92 1915.67,101.632 1912.28,101.056C1908.89,100.48 1906.3,99.456 1904.5,97.984C1902.71,96.512 1900.98,94.112 1899.32,90.784C1895.35,94.24 1891.16,96.96 1886.74,98.944C1882.33,100.928 1877.11,101.92 1871.1,101.92ZM1879.16,82.336C1888.63,82.336 1895.32,78.368 1899.22,70.432C1903.13,62.496 1905.08,53.664 1905.08,43.936C1905.08,29.344 1899.32,22.048 1887.8,22.048C1882.55,22.048 1877.82,23.712 1873.59,27.04C1869.37,30.368 1866.1,34.848 1863.8,40.48C1861.5,46.112 1860.34,52.256 1860.34,58.912C1860.34,66.208 1861.88,71.936 1864.95,76.096C1868.02,80.256 1872.76,82.336 1879.16,82.336ZM1948.09,4L1970.74,4L1969.21,14.176C1972.02,11.232 1975.8,8.544 1980.54,6.112C1985.27,3.68 1990.07,2.464 1994.94,2.464L2001.66,2.464L1993.21,24.928L1984.18,24.928C1980.6,24.928 1977.18,25.824 1973.91,27.616C1970.65,29.408 1968.18,31.712 1966.52,34.528L1954.81,100L1931.19,100L1948.09,4ZM2019.7,101.92C2008.82,101.92 2000.18,98.208 1993.78,90.784C1987.38,83.36 1984.18,73.76 1984.18,61.984C1984.18,51.872 1986.39,42.24 1990.81,33.088C1995.22,23.936 2001.53,16.544 2009.72,10.912C2017.91,5.28 2027.38,2.464 2038.14,2.464C2043,2.464 2047.19,3.168 2050.71,4.576C2054.23,5.984 2057.46,8.032 2060.41,10.72L2063.1,4L2083.83,4L2072.7,69.664C2072.18,72.608 2071.93,75.04 2071.93,76.96C2071.93,79.52 2072.5,81.056 2073.66,81.568C2074.81,82.08 2077.37,82.336 2081.34,82.336L2075.96,101.92C2069.3,101.92 2064.28,101.632 2060.89,101.056C2057.5,100.48 2054.9,99.456 2053.11,97.984C2051.32,96.512 2049.59,94.112 2047.93,90.784C2043.96,94.24 2039.77,96.96 2035.35,98.944C2030.94,100.928 2025.72,101.92 2019.7,101.92ZM2027.77,82.336C2037.24,82.336 2043.93,78.368 2047.83,70.432C2051.74,62.496 2053.69,53.664 2053.69,43.936C2053.69,29.344 2047.93,22.048 2036.41,22.048C2031.16,22.048 2026.42,23.712 2022.2,27.04C2017.98,30.368 2014.71,34.848 2012.41,40.48C2010.1,46.112 2008.95,52.256 2008.95,58.912C2008.95,66.208 2010.49,71.936 2013.56,76.096C2016.63,80.256 2021.37,82.336 2027.77,82.336ZM2088.06,54.688L2101.69,-34.4L2125.5,-34.4L2107.64,54.688L2106.68,60.256L2087.1,60.256L2088.06,54.688ZM2081.91,73.888L2106.87,73.888L2102.26,100L2077.3,100L2081.91,73.888Z" clip-rule="nonzero"/>
                    </clipPath>
                    <g clip-path="url(#_clip2)">
                        <path d="M1757.24,4L1778.17,4L1778.36,12.448C1786.94,5.792 1796.22,2.464 1806.2,2.464C1816.82,2.464 1825.11,6.112 1831.06,13.408C1837.02,20.704 1839.99,30.56 1839.99,42.976C1839.99,54.624 1838.04,64.896 1834.14,73.792C1830.23,82.688 1824.66,89.6 1817.43,94.528C1810.2,99.456 1801.72,101.92 1791.99,101.92C1785.85,101.92 1780.6,100.768 1776.25,98.464C1771.9,96.16 1768.44,93.088 1765.88,89.248L1755.9,146.464L1732.09,146.464L1757.24,4ZM1790.07,82.336C1797.62,82.336 1803.74,78.88 1808.41,71.968C1813.08,65.056 1815.42,56.16 1815.42,45.28C1815.42,38.112 1814.04,32.448 1811.29,28.288C1808.54,24.128 1804.34,22.048 1798.71,22.048C1790.14,22.048 1783.26,25.76 1778.07,33.184C1772.89,40.608 1770.3,49.824 1770.3,60.832C1770.3,75.168 1776.89,82.336 1790.07,82.336Z" style="fill-rule:nonzero;"/>
                        <path d="M1871.1,101.92C1860.22,101.92 1851.58,98.208 1845.18,90.784C1838.78,83.36 1835.58,73.76 1835.58,61.984C1835.58,51.872 1837.78,42.24 1842.2,33.088C1846.62,23.936 1852.92,16.544 1861.11,10.912C1869.3,5.28 1878.78,2.464 1889.53,2.464C1894.39,2.464 1898.58,3.168 1902.1,4.576C1905.62,5.984 1908.86,8.032 1911.8,10.72L1914.49,4L1935.22,4L1924.09,69.664C1923.58,72.608 1923.32,75.04 1923.32,76.96C1923.32,79.52 1923.9,81.056 1925.05,81.568C1926.2,82.08 1928.76,82.336 1932.73,82.336L1927.35,101.92C1920.7,101.92 1915.67,101.632 1912.28,101.056C1908.89,100.48 1906.3,99.456 1904.5,97.984C1902.71,96.512 1900.98,94.112 1899.32,90.784C1895.35,94.24 1891.16,96.96 1886.74,98.944C1882.33,100.928 1877.11,101.92 1871.1,101.92ZM1879.16,82.336C1888.63,82.336 1895.32,78.368 1899.22,70.432C1903.13,62.496 1905.08,53.664 1905.08,43.936C1905.08,29.344 1899.32,22.048 1887.8,22.048C1882.55,22.048 1877.82,23.712 1873.59,27.04C1869.37,30.368 1866.1,34.848 1863.8,40.48C1861.5,46.112 1860.34,52.256 1860.34,58.912C1860.34,66.208 1861.88,71.936 1864.95,76.096C1868.02,80.256 1872.76,82.336 1879.16,82.336Z" style="fill-rule:nonzero;"/>
                        <path d="M1948.09,4L1970.74,4L1969.21,14.176C1972.02,11.232 1975.8,8.544 1980.54,6.112C1985.27,3.68 1990.07,2.464 1994.94,2.464L2001.66,2.464L1993.21,24.928L1984.18,24.928C1980.6,24.928 1977.18,25.824 1973.91,27.616C1970.65,29.408 1968.18,31.712 1966.52,34.528L1954.81,100L1931.19,100L1948.09,4Z" style="fill-rule:nonzero;"/>
                        <path d="M2019.7,101.92C2008.82,101.92 2000.18,98.208 1993.78,90.784C1987.38,83.36 1984.18,73.76 1984.18,61.984C1984.18,51.872 1986.39,42.24 1990.81,33.088C1995.22,23.936 2001.53,16.544 2009.72,10.912C2017.91,5.28 2027.38,2.464 2038.14,2.464C2043,2.464 2047.19,3.168 2050.71,4.576C2054.23,5.984 2057.46,8.032 2060.41,10.72L2063.1,4L2083.83,4L2072.7,69.664C2072.18,72.608 2071.93,75.04 2071.93,76.96C2071.93,79.52 2072.5,81.056 2073.66,81.568C2074.81,82.08 2077.37,82.336 2081.34,82.336L2075.96,101.92C2069.3,101.92 2064.28,101.632 2060.89,101.056C2057.5,100.48 2054.9,99.456 2053.11,97.984C2051.32,96.512 2049.59,94.112 2047.93,90.784C2043.96,94.24 2039.77,96.96 2035.35,98.944C2030.94,100.928 2025.72,101.92 2019.7,101.92ZM2027.77,82.336C2037.24,82.336 2043.93,78.368 2047.83,70.432C2051.74,62.496 2053.69,53.664 2053.69,43.936C2053.69,29.344 2047.93,22.048 2036.41,22.048C2031.16,22.048 2026.42,23.712 2022.2,27.04C2017.98,30.368 2014.71,34.848 2012.41,40.48C2010.1,46.112 2008.95,52.256 2008.95,58.912C2008.95,66.208 2010.49,71.936 2013.56,76.096C2016.63,80.256 2021.37,82.336 2027.77,82.336Z" style="fill-rule:nonzero;"/>
                        <path d="M2088.06,54.688L2101.69,-34.4L2125.5,-34.4L2107.64,54.688L2106.68,60.256L2087.1,60.256L2088.06,54.688ZM2081.91,73.888L2106.87,73.888L2102.26,100L2077.3,100L2081.91,73.888Z" style="fill-rule:nonzero;"/>
                        <g transform="matrix(2.99536,0,0,3.07609,-3461.63,-297.193)">
                            <ellipse cx="1831" cy="109" rx="44" ry="46" style="fill:rgb(81,14,146);"/>
                        </g>
                    </g>
                </g>
            </g>
        </g>
    </g>
</svg>
