<svg xmlns="http://www.w3.org/2000/svg" viewBox="0 0 1000 1000"><defs><style>.cls-1,.cls-2{fill:none;stroke:#000;stroke-miterlimit:10;}.cls-1{stroke-width:3px;}</style></defs><title>death</title><g id="Layer_1" data-name="Layer 1"><path class="cls-1" d="M500,0C223.86,0,0,223.86,0,500s223.86,500,500,500,500-223.86,500-500S776.14,0,500,0Zm0,960.39C245.74,960.39,39.61,754.26,39.61,500S245.74,39.61,500,39.61,960.39,245.74,960.39,500,754.26,960.39,500,960.39Z"/></g><g id="Layer_2" data-name="Layer 2"><path class="cls-1" d="M959.44,470.28S734.08,441.59,593.09,360.6c0,0-80.69,135.46-57.39,339.43-23.3-204,57.39-339.43,57.39-339.43s-154.49-66-298.49,0c0,0-85.5,184.49-45,297l635.81,94.33S973.31,628,959.44,470.28Z"/><path class="cls-1" d="M274,470s6-61,35-101c0,0,58-33,110-10,0,0,77.15-24.38,146.15,7.62,0,0-32.15,43.44-31.15,94.38C534,461,386,432,274,470Z"/><path d="M344.8,392a14.65,14.65,0,0,0-9.53.53,10.49,10.49,0,0,1-13.92,15.54c-.22.6-.43,1.22-.61,1.85-3.76,12.71.93,25.3,10.46,28.12s20.31-5.2,24.06-17.92S354.33,394.8,344.8,392Z"/><path d="M477.3,387a14.65,14.65,0,0,0-9.53.53,10.49,10.49,0,0,1-13.92,15.54c-.22.6-.43,1.22-.61,1.85-3.76,12.71.93,25.3,10.46,28.12s20.31-5.2,24.06-17.92S486.83,389.86,477.3,387Z"/><path class="cls-1" d="M308.33,566.33S393,584.33,479,537.67C479,537.67,435,725.67,308.33,566.33Z"/><path class="cls-2" d="M380.29,626.74s29.59-39.51,71.65-28C451.94,598.78,428.25,642.82,380.29,626.74Z"/><path class="cls-1" d="M528.88,762c1.71-28.33,14.49-51.47,30.33-57.63a22.22,22.22,0,0,0-6.94-1.58c-20-1.21-37.94,25.3-40,59.21s12.52,62.39,32.56,63.6A22.71,22.71,0,0,0,554.5,824C538.15,817.44,527.07,791.81,528.88,762Z"/><path class="cls-1" d="M584.82,766.34c1.81-29.85-9.28-55.48-25.62-62-15.84,6.16-28.61,29.3-30.33,57.63-1.81,29.85,9.28,55.48,25.62,62C570.33,817.82,583.11,794.67,584.82,766.34Z"/><path class="cls-1" d="M601.81,772.83c1.71-28.33,14.49-51.47,30.33-57.63a22.22,22.22,0,0,0-6.94-1.58c-20-1.21-37.94,25.3-40,59.21s12.52,62.39,32.56,63.6a22.71,22.71,0,0,0,9.66-1.58C611.08,828.31,600,802.69,601.81,772.83Z"/><path class="cls-1" d="M657.75,777.22c1.81-29.85-9.28-55.48-25.62-62-15.84,6.16-28.61,29.3-30.33,57.63-1.81,29.85,9.28,55.48,25.62,62C643.26,828.7,656,805.55,657.75,777.22Z"/><path class="cls-1" d="M674.74,782.36c1.71-28.33,14.49-51.47,30.33-57.63a22.22,22.22,0,0,0-6.94-1.58c-20-1.21-37.94,25.3-40,59.21s12.52,62.39,32.56,63.6a22.71,22.71,0,0,0,9.66-1.58C684,837.84,672.93,812.21,674.74,782.36Z"/><path class="cls-1" d="M730.68,786.75c1.81-29.85-9.28-55.48-25.62-62-15.84,6.16-28.61,29.3-30.33,57.63-1.81,29.85,9.28,55.48,25.62,62C716.19,838.22,729,815.07,730.68,786.75Z"/><path class="cls-1" d="M263.3,720.91c1.71-28.33,14.49-51.47,30.33-57.63a22.22,22.22,0,0,0-6.94-1.58c-20-1.21-37.94,25.3-40,59.21s12.52,62.39,32.56,63.6a22.71,22.71,0,0,0,9.66-1.58C272.58,776.39,261.5,750.77,263.3,720.91Z"/><path class="cls-1" d="M319.25,725.3c1.81-29.85-9.28-55.48-25.62-62-15.84,6.16-28.61,29.3-30.33,57.63-1.81,29.85,9.28,55.48,25.62,62C304.76,776.78,317.54,753.63,319.25,725.3Z"/><path class="cls-1" d="M336.89,733.78c1.71-28.33,14.49-51.47,30.33-57.63a22.22,22.22,0,0,0-6.94-1.58c-20-1.21-37.94,25.3-40,59.21s12.52,62.39,32.56,63.6a22.71,22.71,0,0,0,9.66-1.58C346.16,789.26,335.08,763.63,336.89,733.78Z"/><path class="cls-1" d="M392.83,738.17c1.81-29.85-9.28-55.48-25.62-62-15.84,6.16-28.61,29.3-30.33,57.63-1.81,29.85,9.28,55.48,25.62,62C378.34,789.64,391.12,766.49,392.83,738.17Z"/><path class="cls-1" d="M409.34,743.37c1.71-28.33,14.49-51.47,30.33-57.63a22.22,22.22,0,0,0-6.94-1.58c-20-1.21-37.94,25.3-40,59.21s12.52,62.39,32.56,63.6a22.71,22.71,0,0,0,9.66-1.58C418.62,798.85,407.53,773.22,409.34,743.37Z"/><path class="cls-1" d="M465.28,747.76c1.81-29.85-9.28-55.48-25.62-62-15.84,6.16-28.61,29.3-30.33,57.63-1.81,29.85,9.28,55.48,25.62,62C450.79,799.23,463.57,776.09,465.28,747.76Z"/></g></svg>