<?xml version="1.0" encoding="UTF-8" standalone="no"?>
<!DOCTYPE svg PUBLIC "-//W3C//DTD SVG 1.1//EN" "http://www.w3.org/Graphics/SVG/1.1/DTD/svg11.dtd">
<svg width="100%" height="100%" viewBox="0 0 128 128" version="1.1" xmlns="http://www.w3.org/2000/svg" xmlns:xlink="http://www.w3.org/1999/xlink" xml:space="preserve" xmlns:serif="http://www.serif.com/" style="fill-rule:evenodd;clip-rule:evenodd;stroke-linejoin:round;stroke-miterlimit:1.41421;">
    <g transform="matrix(1,0,0,1,-1116,0)">
        <g id="Train" transform="matrix(1,0,0,1,1116,0)">
            <rect x="0" y="0" width="128" height="128" style="fill:none;"/>
            <g transform="matrix(1,0,0,1,13.48,16.0027)">
                <path d="M72.94,12.15C71.15,11.58 69.4,11.08 67.67,10.64L67.67,5.07C67.676,3.686 66.673,2.488 65.31,2.25C55.172,0.58 44.828,0.58 34.69,2.25C33.323,2.484 32.315,3.683 32.32,5.07L32.32,10.64C30.59,11.08 28.84,11.58 27.05,12.15C21.95,13.78 18.52,18.55 18.52,24.85L18.52,70.36C18.52,69.71 18.52,70.01 18.52,70.3C18.998,75.633 23.026,80.015 28.3,80.94L21.1,92.61C20.743,93.256 20.555,93.982 20.555,94.721C20.555,97.113 22.523,99.081 24.915,99.081C26.568,99.081 28.085,98.141 28.82,96.66L31.24,93.07L68.77,93.07L71.19,96.66C71.957,98.046 73.421,98.909 75.005,98.909C77.397,98.909 79.365,96.941 79.365,94.549C79.365,93.876 79.209,93.213 78.91,92.61L71.7,80.94C76.958,79.999 80.966,75.621 81.44,70.3C81.44,70.01 81.44,69.71 81.44,70.36L81.44,24.85C81.47,18.55 78,13.78 72.94,12.15ZM41.29,12.07C41.317,11.426 41.818,10.894 42.46,10.83C47.463,10.094 52.547,10.094 57.55,10.83C58.192,10.894 58.693,11.426 58.72,12.07L58.72,17.17C58.677,17.896 58.046,18.46 57.32,18.42L42.69,18.42C41.964,18.46 41.333,17.896 41.29,17.17L41.29,12.07ZM29.08,63.3C29.08,60.008 31.788,57.3 35.08,57.3C38.372,57.3 41.08,60.008 41.08,63.3C41.08,66.592 38.372,69.3 35.08,69.3C31.788,69.3 29.08,66.592 29.08,63.3ZM34.9,86.1L38,81.17L62,81.17L65.1,86.1L34.9,86.1ZM64.9,69.27C61.608,69.27 58.9,66.562 58.9,63.27C58.9,59.978 61.608,57.27 64.9,57.27C68.192,57.27 70.9,59.978 70.9,63.27C70.906,66.55 68.22,69.258 64.94,69.28L64.9,69.27ZM71.34,31.15L67.73,46.66C67.469,47.826 66.425,48.661 65.23,48.66L34.78,48.66C33.585,48.661 32.541,47.826 32.28,46.66L28.62,31.16C28.582,30.993 28.563,30.822 28.563,30.65C28.563,29.372 29.615,28.32 30.893,28.32C30.896,28.32 30.898,28.32 30.9,28.32L69.1,28.32C69.102,28.32 69.104,28.32 69.107,28.32C70.385,28.32 71.437,29.372 71.437,30.65C71.437,30.822 71.418,30.993 71.38,31.16L71.34,31.15Z" style="fill:rgb(205,216,221);fill-rule:nonzero;"/>
            </g>
        </g>
    </g>
</svg>
