<?xml version="1.0" encoding="UTF-8" standalone="no"?>
<!DOCTYPE svg PUBLIC "-//W3C//DTD SVG 1.1//EN" "http://www.w3.org/Graphics/SVG/1.1/DTD/svg11.dtd">
<svg width="100%" height="100%" viewBox="0 0 128 128" version="1.1" xmlns="http://www.w3.org/2000/svg" xmlns:xlink="http://www.w3.org/1999/xlink" xml:space="preserve" xmlns:serif="http://www.serif.com/" style="fill-rule:evenodd;clip-rule:evenodd;stroke-linejoin:round;stroke-miterlimit:1.41421;">
    <g transform="matrix(1,0,0,1,-331,0)">
        <g id="Beginning-Li" serif:id="Beginning Li" transform="matrix(1,0,0,1,331,0)">
            <rect x="0" y="0" width="128" height="128" style="fill:none;"/>
            <g transform="matrix(0.684932,0,0,0.877358,22.3767,15.6981)">
                <path d="M25,128L25,58.5C25,38.355 41.355,22 61.5,22C81.645,22 98,38.355 98,58.5L98,128L25,128Z" style="fill:rgb(0,178,65);fill-opacity:0.3;"/>
            </g>
            <g transform="matrix(1.09091,0,0,1.09091,-0.409091,-8.63636)">
                <circle cx="59.5" cy="67.5" r="27.5" style="fill:white;"/>
            </g>
            <g transform="matrix(0.909091,0,0,0.909091,10.4091,3.63636)">
                <circle cx="59.5" cy="67.5" r="27.5" style="fill:rgb(0,178,65);"/>
            </g>
        </g>
    </g>
</svg>
